Normalized EMG Linear Envelopes
nRows=128
nColumns=4

endheader
time	 med_gas_r	  soleus_r	 tib_ant_r	
2.375	  0.005903	  0.018547	  0.037173	
2.4375	  0.006649	  0.017014	  0.037263	
2.5	  0.007155	  0.015854	  0.037267	
2.5625	  0.007430	  0.015117	  0.037159	
2.625	  0.007597	  0.014701	  0.036956	
2.6875	  0.007743	  0.014739	  0.036728	
2.75	  0.007985	  0.015574	  0.036615	
2.8125	  0.008446	  0.017361	  0.036742	
2.875	  0.009047	  0.019583	  0.037069	
2.9375	  0.009495	  0.021110	  0.037384	
3	  0.009505	  0.021242	  0.037463	
3.0625	  0.009018	  0.020561	  0.037275	
3.125	  0.008281	  0.020150	  0.037062	
3.1875	  0.007677	  0.020386	  0.037133	
3.25	  0.007436	  0.021185	  0.037486	
3.3125	  0.007564	  0.022662	  0.037742	
3.375	  0.007955	  0.024724	  0.037565	
3.4375	  0.008441	  0.026421	  0.037017	
3.5	  0.008844	  0.026586	  0.036473	
3.5625	  0.009024	  0.025162	  0.036297	
3.625	  0.008912	  0.023201	  0.036552	
3.6875	  0.008562	  0.021658	  0.036850	
3.75	  0.008161	  0.020888	  0.036691	
3.8125	  0.007874	  0.020843	  0.036068	
3.875	  0.007778	  0.021061	  0.035502	
3.9375	  0.007901	  0.020971	  0.035409	
4	  0.008178	  0.020572	  0.035714	
4.0625	  0.008410	  0.020304	  0.036136	
4.125	  0.008403	  0.020227	  0.036561	
4.1875	  0.008141	  0.019881	  0.036941	
4.25	  0.007778	  0.018964	  0.037001	
4.3125	  0.007502	  0.017766	  0.036233	
4.375	  0.007396	  0.016781	  0.034161	
4.4375	  0.007414	  0.016072	  0.030841	
4.5	  0.007522	  0.015488	  0.027689	
4.5625	  0.007786	  0.015539	  0.028520	
4.625	  0.008397	  0.017650	  0.039989	
4.6875	  0.009657	  0.023643	  0.069900	
4.75	  0.011751	  0.034969	  0.123671	
4.8125	  0.014477	  0.051326	  0.200006	
4.875	  0.017397	  0.069581	  0.286095	
4.9375	  0.020144	  0.085190	  0.358991	
5	  0.022381	  0.095336	  0.399752	
5.0625	  0.023787	  0.100563	  0.407701	
5.125	  0.024382	  0.103266	  0.397836	
5.1875	  0.024702	  0.104673	  0.387706	
5.25	  0.025360	  0.103938	  0.388240	
5.3125	  0.026354	  0.100478	  0.399542	
5.375	  0.027159	  0.096630	  0.411955	
5.4375	  0.027727	  0.097264	  0.416339	
5.5	  0.028748	  0.105317	  0.413517	
5.5625	  0.030540	  0.117612	  0.409543	
5.625	  0.032544	  0.127830	  0.406761	
5.6875	  0.034170	  0.133484	  0.407224	
5.75	  0.035315	  0.136899	  0.419045	
5.8125	  0.036178	  0.140770	  0.448854	
5.875	  0.037244	  0.146257	  0.489805	
5.9375	  0.039053	  0.154222	  0.524371	
6	  0.041492	  0.165025	  0.540712	
6.0625	  0.043636	  0.176931	  0.542583	
6.125	  0.044659	  0.187880	  0.541520	
6.1875	  0.044737	  0.199262	  0.544334	
6.25	  0.044730	  0.213710	  0.549457	
6.3125	  0.045267	  0.228996	  0.550394	
6.375	  0.046522	  0.238692	  0.543261	
6.4375	  0.048499	  0.239691	  0.534972	
6.5	  0.050861	  0.235263	  0.540569	
6.5625	  0.052601	  0.229030	  0.564918	
6.625	  0.052609	  0.221487	  0.592373	
6.6875	  0.050858	  0.214593	  0.604172	
6.75	  0.048457	  0.211872	  0.597433	
6.8125	  0.046449	  0.212301	  0.582313	
6.875	  0.045118	  0.211292	  0.573590	
6.9375	  0.044363	  0.207341	  0.583563	
7	  0.044007	  0.202618	  0.610588	
7.0625	  0.043717	  0.199176	  0.637447	
7.125	  0.043497	  0.199222	  0.644774	
7.1875	  0.044263	  0.206830	  0.622062	
7.25	  0.046883	  0.223987	  0.572653	
7.3125	  0.050599	  0.244517	  0.515967	
7.375	  0.053250	  0.256193	  0.475642	
7.4375	  0.053176	  0.251921	  0.461401	
7.5	  0.050574	  0.236722	  0.468128	
7.5625	  0.047067	  0.221659	  0.486378	
7.625	  0.044316	  0.213129	  0.508367	
7.6875	  0.043066	  0.208745	  0.528479	
7.75	  0.043005	  0.201721	  0.540272	
7.8125	  0.043217	  0.188857	  0.535854	
7.875	  0.043009	  0.174051	  0.511520	
7.9375	  0.042392	  0.163235	  0.473071	
8	  0.041593	  0.157866	  0.435385	
8.0625	  0.040720	  0.156212	  0.416802	
8.125	  0.040052	  0.158095	  0.430332	
8.1875	  0.039808	  0.164109	  0.473773	
8.25	  0.039934	  0.173445	  0.527574	
8.3125	  0.040416	  0.185448	  0.568823	
8.375	  0.040979	  0.198589	  0.585959	
8.4375	  0.040944	  0.207655	  0.579445	
8.5	  0.040238	  0.207811	  0.560492	
8.5625	  0.039472	  0.199715	  0.546576	
8.625	  0.039048	  0.188299	  0.545989	
8.6875	  0.039387	  0.180994	  0.555218	
8.75	  0.040976	  0.184145	  0.571414	
8.8125	  0.043119	  0.194704	  0.589467	
8.875	  0.043947	  0.200475	  0.592637	
8.9375	  0.042202	  0.192970	  0.565754	
9	  0.038338	  0.176180	  0.517420	
9.0625	  0.034090	  0.162645	  0.476814	
9.125	  0.031200	  0.162889	  0.462771	
9.1875	  0.030169	  0.175697	  0.462416	
9.25	  0.030115	  0.187444	  0.448099	
9.3125	  0.029888	  0.183910	  0.410326	
9.375	  0.029015	  0.163692	  0.364780	
9.4375	  0.027463	  0.138321	  0.331059	
9.5	  0.025227	  0.119553	  0.314532	
9.5625	  0.022495	  0.109136	  0.305428	
9.625	  0.019400	  0.100552	  0.287376	
9.6875	  0.015568	  0.087240	  0.249700	
9.75	  0.010875	  0.068307	  0.195134	
9.8125	  0.006795	  0.048320	  0.136184	
9.875	  0.006785	  0.033048	  0.086726	
9.9375	  0.015545	  0.025781	  0.055195	
10	  0.037088	  0.026910	  0.041300	
10.0625	  0.070134	  0.034862	  0.038905	
10.125	  0.102076	  0.045545	  0.041755	
10.1875	  0.111767	  0.052110	  0.046107	
10.25	  0.086397	  0.049133	  0.050343	
10.3125	  0.035175	  0.038078	  0.053972	
